<?xml version="1.0" encoding="utf-8"?>
<!-- Generator: Adobe Illustrator 21.0.2, SVG Export Plug-In . SVG Version: 6.00 Build 0)  -->
<svg version="1.1" id="Hexagonos" xmlns="http://www.w3.org/2000/svg" xmlns:xlink="http://www.w3.org/1999/xlink" x="0px" y="0px"
	 viewBox="0 0 3052 2062" style="enable-background:new 0 0 3052 2062;" xml:space="preserve">
<style type="text/css">
	.st0{fill:#6C1D45;}
	.st1{fill:#554C4E;}
	.st2{fill:#5F5D5F;}
	.st3{fill:#BEBAB7;}
	.st4{fill:#6A6D74;}
	.st5{fill:#B0A9AC;}
	.st6{fill:#6A8E95;}
	.st7{fill:#474955;}
	.st8{fill:#C9C7C3;}
</style>
<g>
	<polygon class="st0" points="890.9,904.4 930.3,927.2 930.3,972.8 890.9,995.6 851.4,972.8 851.4,927.2 	"/>
	<polygon class="st0" points="733.5,769.8 746.5,777.3 746.5,792.2 733.5,799.7 720.5,792.2 720.5,777.3 	"/>
	<polygon class="st1" points="969.8,904.4 1009.3,927.2 1009.3,972.8 969.8,995.6 930.3,972.8 930.3,927.2 	"/>
	<polygon class="st1" points="970.7,743.9 984.5,751.8 984.5,767.7 970.7,775.6 957,767.7 957,751.8 	"/>
	<polygon class="st1" points="828,828.9 854.4,844.2 854.4,874.7 828,890 801.6,874.7 801.6,844.2 	"/>
	<polygon class="st2" points="1048.7,904.4 1088.2,927.2 1088.2,972.8 1048.7,995.6 1009.3,972.8 1009.3,927.2 	"/>
	<polygon class="st1" points="1127.7,904.4 1167.2,927.2 1167.2,972.8 1127.7,995.6 1088.2,972.8 1088.2,927.2 	"/>
	<polygon class="st3" points="1285.6,904.4 1325,927.2 1325,972.8 1285.6,995.6 1246.1,972.8 1246.1,927.2 	"/>
	<polygon class="st0" points="1364.5,904.4 1404,927.2 1404,972.8 1364.5,995.6 1325,972.8 1325,927.2 	"/>
	<polygon class="st0" points="1338.9,769.5 1357.4,780.2 1357.4,801.5 1338.9,812.2 1320.4,801.5 1320.4,780.2 	"/>
	<polygon class="st4" points="1443.5,904.4 1482.9,927.2 1482.9,972.8 1443.5,995.6 1404,972.8 1404,927.2 	"/>
	<polygon class="st5" points="1522.4,904.4 1561.9,927.2 1561.9,972.8 1522.4,995.6 1482.9,972.8 1482.9,927.2 	"/>
	<polygon class="st5" points="1569.1,832.6 1595.5,847.9 1595.5,878.4 1569.1,893.6 1542.6,878.4 1542.6,847.9 	"/>
	<polygon class="st3" points="1601.3,904.4 1640.8,927.2 1640.8,972.8 1601.3,995.6 1561.9,972.8 1561.9,927.2 	"/>
	<polygon class="st1" points="851.4,972.8 890.9,995.6 890.9,1041.2 851.4,1064 811.9,1041.2 811.9,995.6 	"/>
	<polygon class="st1" points="550.4,859.6 560.4,865.3 560.4,876.8 550.4,882.6 540.4,876.8 540.4,865.3 	"/>
	<polygon class="st4" points="930.3,972.8 969.8,995.6 969.8,1041.2 930.3,1064 890.9,1041.2 890.9,995.6 	"/>
	<polygon class="st4" points="631.5,738.7 637.1,741.9 637.1,748.4 631.5,751.6 625.9,748.4 625.9,741.9 	"/>
	<polygon class="st4" points="930.3,836.1 969.8,858.9 969.8,904.4 930.3,927.2 890.9,904.4 890.9,858.9 	"/>
	<polygon class="st0" points="1009.3,972.8 1048.7,995.6 1048.7,1041.2 1009.3,1064 969.8,1041.2 969.8,995.6 	"/>
	<polygon class="st0" points="1089.8,822.5 1118.4,839 1118.4,872 1089.8,888.6 1061.2,872 1061.2,839 	"/>
	<polygon class="st6" points="1088.2,972.8 1127.7,995.6 1127.7,1041.2 1088.2,1064 1048.7,1041.2 1048.7,995.6 	"/>
	<polygon class="st6" points="1154.1,732.9 1171.6,743 1171.6,763.2 1154.1,773.3 1136.6,763.2 1136.6,743 	"/>
	<polygon class="st7" points="1167.2,972.8 1206.6,995.6 1206.6,1041.2 1167.2,1064 1127.7,1041.2 1127.7,995.6 	"/>
	<polygon class="st4" points="1246.1,972.8 1285.6,995.6 1285.6,1041.2 1246.1,1064 1206.6,1041.2 1206.6,995.6 	"/>
	<polygon class="st7" points="1325,972.8 1364.5,995.6 1364.5,1041.2 1325,1064 1285.6,1041.2 1285.6,995.6 	"/>
	<polygon class="st2" points="1404,972.8 1443.5,995.6 1443.5,1041.2 1404,1064 1364.5,1041.2 1364.5,995.6 	"/>
	<polygon class="st2" points="1407.7,836.3 1433.1,850.9 1433.1,880.3 1407.7,895 1382.2,880.3 1382.2,850.9 	"/>
	<polygon class="st3" points="1482.9,972.8 1522.4,995.6 1522.4,1041.2 1482.9,1064 1443.5,1041.2 1443.5,995.6 	"/>
	<polygon class="st3" points="1595.8,731 1605.3,736.6 1605.3,747.6 1595.8,753.2 1586.2,747.6 1586.2,736.6 	"/>
	<polygon class="st3" points="1501.2,773.1 1518.7,783.2 1518.7,803.4 1501.2,813.5 1483.7,803.4 1483.7,783.2 	"/>
	<polygon class="st8" points="1561.9,972.8 1601.3,995.6 1601.3,1041.2 1561.9,1064 1522.4,1041.2 1522.4,995.6 	"/>
	<polygon class="st6" points="1640.8,972.8 1680.3,995.6 1680.3,1041.2 1640.8,1064 1601.3,1041.2 1601.3,995.6 	"/>
	<polygon class="st6" points="1900.6,918 1910.5,923.7 1910.5,935 1900.6,940.7 1890.8,935 1890.8,923.7 	"/>
	<polygon class="st4" points="1719.8,972.8 1759.2,995.6 1759.2,1041.2 1719.8,1064 1680.3,1041.2 1680.3,995.6 	"/>
	<polygon class="st6" points="811.9,1041.2 851.4,1064 851.4,1109.5 811.9,1132.3 772.4,1109.5 772.4,1064 	"/>
	<polygon class="st6" points="648.5,929 662.6,937.1 662.6,953.4 648.5,961.5 634.3,953.4 634.3,937.1 	"/>
	<polygon class="st7" points="890.9,1041.2 930.3,1064 930.3,1109.5 890.9,1132.3 851.4,1109.5 851.4,1064 	"/>
	<polygon class="st1" points="969.8,1041.2 1009.3,1064 1009.3,1109.5 969.8,1132.3 930.3,1109.5 930.3,1064 	"/>
	<polygon class="st3" points="1048.7,1041.2 1088.2,1064 1088.2,1109.5 1048.7,1132.3 1009.3,1109.5 1009.3,1064 	"/>
	<polygon class="st3" points="788.9,911.3 814.9,926.3 814.9,956.3 788.9,971.3 762.9,956.3 762.9,926.3 	"/>
	<polygon class="st4" points="1127.7,1041.2 1167.2,1064 1167.2,1109.5 1127.7,1132.3 1088.2,1109.5 1088.2,1064 	"/>
	<polygon class="st2" points="1206.6,1041.2 1246.1,1064 1246.1,1109.5 1206.6,1132.3 1167.2,1109.5 1167.2,1064 	"/>
	<polygon class="st2" points="1253.3,737.5 1265,744.2 1265,757.8 1253.3,764.5 1241.6,757.8 1241.6,744.2 	"/>
	<polygon class="st6" points="1285.6,1041.2 1325,1064 1325,1109.5 1285.6,1132.3 1246.1,1109.5 1246.1,1064 	"/>
	<polygon class="st6" points="1208.7,1500.1 1220,1506.6 1220,1519.6 1208.7,1526.1 1197.5,1519.6 1197.5,1506.6 	"/>
	<polygon class="st6" points="1208.7,847.2 1233.9,861.8 1233.9,890.9 1208.7,905.4 1183.5,890.9 1183.5,861.8 	"/>
	<polygon class="st5" points="1364.5,1041.2 1404,1064 1404,1109.5 1364.5,1132.3 1325,1109.5 1325,1064 	"/>
	<polygon class="st8" points="1443.5,1041.2 1482.9,1064 1482.9,1109.5 1443.5,1132.3 1404,1109.5 1404,1064 	"/>
	<polygon class="st2" points="1522.4,1041.2 1561.9,1064 1561.9,1109.5 1522.4,1132.3 1482.9,1109.5 1482.9,1064 	"/>
	<polygon class="st2" points="1812.7,796.9 1822.9,802.8 1822.9,814.5 1812.7,820.3 1802.6,814.5 1802.6,802.8 	"/>
	<polygon class="st2" points="1807.8,889.3 1823.5,898.4 1823.5,916.5 1807.8,925.6 1792.1,916.5 1792.1,898.4 	"/>
	<polygon class="st2" points="1675.2,800.8 1693.9,811.6 1693.9,833.1 1675.2,843.9 1656.5,833.1 1656.5,811.6 	"/>
	<polygon class="st5" points="1601.3,1041.2 1640.8,1064 1640.8,1109.5 1601.3,1132.3 1561.9,1109.5 1561.9,1064 	"/>
	<polygon class="st5" points="1828.2,991.8 1852.6,1005.9 1852.6,1034.1 1828.2,1048.2 1803.8,1034.1 1803.8,1005.9 	"/>
	<polygon class="st3" points="1680.3,1041.2 1719.8,1064 1719.8,1109.5 1680.3,1132.3 1640.8,1109.5 1640.8,1064 	"/>
	<polygon class="st0" points="772.4,1109.5 811.9,1132.3 811.9,1177.9 772.4,1200.7 733,1177.9 733,1132.3 	"/>
	<polygon class="st0" points="508,1090.6 514.8,1094.5 514.8,1102.3 508,1106.2 501.3,1102.3 501.3,1094.5 	"/>
	<polygon class="st3" points="851.4,1109.5 890.9,1132.3 890.9,1177.9 851.4,1200.7 811.9,1177.9 811.9,1132.3 	"/>
	<polygon class="st3" points="520.2,1342 531.1,1348.3 531.1,1360.8 520.2,1367.1 509.3,1360.8 509.3,1348.3 	"/>
	<polygon class="st3" points="600.7,1137.6 614.3,1145.4 614.3,1161.2 600.7,1169 587.1,1161.2 587.1,1145.4 	"/>
	<polygon class="st3" points="706.8,1211.9 730.5,1225.6 730.5,1253 706.8,1266.6 683.2,1253 683.2,1225.6 	"/>
	<polygon class="st6" points="930.3,1109.5 969.8,1132.3 969.8,1177.9 930.3,1200.7 890.9,1177.9 890.9,1132.3 	"/>
	<polygon class="st6" points="829.7,1298.3 853.9,1312.2 853.9,1340.2 829.7,1354.1 805.5,1340.2 805.5,1312.2 	"/>
	<polygon class="st6" points="710.8,1042.2 733.3,1055.2 733.3,1081.2 710.8,1094.2 688.3,1081.2 688.3,1055.2 	"/>
	<polygon class="st7" points="1009.3,1109.5 1048.7,1132.3 1048.7,1177.9 1009.3,1200.7 969.8,1177.9 969.8,1132.3 	"/>
	<polygon class="st7" points="1008.4,1317.9 1030.6,1330.7 1030.6,1356.4 1008.4,1369.3 986.1,1356.4 986.1,1330.7 	"/>
	<polygon class="st2" points="1088.2,1109.5 1127.7,1132.3 1127.7,1177.9 1088.2,1200.7 1048.7,1177.9 1048.7,1132.3 	"/>
	<polygon class="st5" points="1167.2,1109.5 1206.6,1132.3 1206.6,1177.9 1167.2,1200.7 1127.7,1177.9 1127.7,1132.3 	"/>
	<polygon class="st3" points="1246.1,1109.5 1285.6,1132.3 1285.6,1177.9 1246.1,1200.7 1206.6,1177.9 1206.6,1132.3 	"/>
	<polygon class="st3" points="1245.2,1317.5 1269.4,1331.5 1269.4,1359.4 1245.2,1373.3 1221,1359.4 1221,1331.5 	"/>
	<polygon class="st8" points="1325,1109.5 1364.5,1132.3 1364.5,1177.9 1325,1200.7 1285.6,1177.9 1285.6,1132.3 	"/>
	<polygon class="st4" points="1404,1109.5 1443.5,1132.3 1443.5,1177.9 1404,1200.7 1364.5,1177.9 1364.5,1132.3 	"/>
	<polygon class="st6" points="1482.9,1109.5 1522.4,1132.3 1522.4,1177.9 1482.9,1200.7 1443.5,1177.9 1443.5,1132.3 	"/>
	<polygon class="st6" points="1780.3,1226.9 1798.1,1237.2 1798.1,1257.8 1780.3,1268.1 1762.4,1257.8 1762.4,1237.2 	"/>
	<polygon class="st6" points="1409.7,1432.5 1435,1447 1435,1476.2 1409.7,1490.7 1384.5,1476.2 1384.5,1447 	"/>
	<polygon class="st8" points="1561.9,1109.5 1601.3,1132.3 1601.3,1177.9 1561.9,1200.7 1522.4,1177.9 1522.4,1132.3 	"/>
	<polygon class="st8" points="1859.2,1094.2 1873.9,1102.7 1873.9,1119.7 1859.2,1128.2 1844.5,1119.7 1844.5,1102.7 	"/>
	<polygon class="st8" points="1729.3,1126.7 1757.9,1143.2 1757.9,1176.2 1729.3,1192.7 1700.7,1176.2 1700.7,1143.2 	"/>
	<polygon class="st0" points="1640.8,1109.5 1680.3,1132.3 1680.3,1177.9 1640.8,1200.7 1601.3,1177.9 1601.3,1132.3 	"/>
	<polygon class="st0" points="1910.7,1237.3 1902.1,1232.4 1902.1,1222.4 1910.7,1217.5 1919.3,1222.4 1919.3,1232.4 	"/>
	<polygon class="st0" points="811.9,1177.9 851.4,1200.7 851.4,1246.3 811.9,1269.1 772.4,1246.3 772.4,1200.7 	"/>
	<polygon class="st0" points="646.3,1343.1 663.2,1352.8 663.2,1372.3 646.3,1382 629.5,1372.3 629.5,1352.8 	"/>
	<polygon class="st2" points="890.9,1177.9 930.3,1200.7 930.3,1246.3 890.9,1269.1 851.4,1246.3 851.4,1200.7 	"/>
	<polygon class="st2" points="799.1,1399.2 811.2,1406.2 811.2,1420.2 799.1,1427.1 787,1420.2 787,1406.2 	"/>
	<polygon class="st4" points="969.8,1177.9 1009.3,1200.7 1009.3,1246.3 969.8,1269.1 930.3,1246.3 930.3,1200.7 	"/>
	<polygon class="st4" points="816.1,1524 828.4,1531.1 828.4,1545.3 816.1,1552.4 803.8,1545.3 803.8,1531.1 	"/>
	<polygon class="st0" points="1048.7,1177.9 1088.2,1200.7 1088.2,1246.3 1048.7,1269.1 1009.3,1246.3 1009.3,1200.7 	"/>
	<polygon class="st0" points="953.6,1424.5 968.9,1433.3 968.9,1451 953.6,1459.8 938.3,1451 938.3,1433.3 	"/>
	<polygon class="st6" points="1127.7,1177.9 1167.2,1200.7 1167.2,1246.3 1127.7,1269.1 1088.2,1246.3 1088.2,1200.7 	"/>
	<polygon class="st6" points="937.4,1549.6 947.3,1555.3 947.3,1566.8 937.4,1572.6 927.5,1566.8 927.5,1555.3 	"/>
	<polygon class="st6" points="1065.5,1443.3 1082.7,1453.2 1082.7,1473.2 1065.5,1483.1 1048.2,1473.2 1048.2,1453.2 	"/>
	<polygon class="st6" points="1127.7,1344.9 1154.8,1360.6 1154.8,1391.9 1127.7,1407.6 1100.5,1391.9 1100.5,1360.6 	"/>
	<polygon class="st4" points="1206.6,1177.9 1246.1,1200.7 1246.1,1246.3 1206.6,1269.1 1167.2,1246.3 1167.2,1200.7 	"/>
	<polygon class="st5" points="1285.6,1177.9 1325,1200.7 1325,1246.3 1285.6,1269.1 1246.1,1246.3 1246.1,1200.7 	"/>
	<polygon class="st3" points="1364.5,1177.9 1404,1200.7 1404,1246.3 1364.5,1269.1 1325,1246.3 1325,1200.7 	"/>
	<polygon class="st3" points="1406,1548.8 1420,1556.9 1420,1573.1 1406,1581.2 1392,1573.1 1392,1556.9 	"/>
	<polygon class="st8" points="1443.5,1177.9 1482.9,1200.7 1482.9,1246.3 1443.5,1269.1 1404,1246.3 1404,1200.7 	"/>
	<polygon class="st3" points="1522.4,1177.9 1561.9,1200.7 1561.9,1246.3 1522.4,1269.1 1482.9,1246.3 1482.9,1200.7 	"/>
	<polygon class="st3" points="1795,1431.8 1805.5,1437.9 1805.5,1450 1795,1456.1 1784.5,1450 1784.5,1437.9 	"/>
	<polygon class="st4" points="1601.3,1177.9 1640.8,1200.7 1640.8,1246.3 1601.3,1269.1 1561.9,1246.3 1561.9,1200.7 	"/>
	<polygon class="st4" points="1842.9,1330.3 1854.2,1336.8 1854.2,1349.9 1842.9,1356.4 1831.6,1349.9 1831.6,1336.8 	"/>
	<polygon class="st5" points="930.3,1246.3 969.8,1269.1 969.8,1314.6 930.3,1337.4 890.9,1314.6 890.9,1269.1 	"/>
	<polygon class="st8" points="1088.2,1246.3 1127.7,1269.1 1127.7,1314.6 1088.2,1337.4 1048.7,1314.6 1048.7,1269.1 	"/>
	<polygon class="st5" points="1167.2,1246.3 1206.6,1269.1 1206.6,1314.6 1167.2,1337.4 1127.7,1314.6 1127.7,1269.1 	"/>
	<polygon class="st2" points="1325,1246.3 1364.5,1269.1 1364.5,1314.6 1325,1337.4 1285.6,1314.6 1285.6,1269.1 	"/>
	<polygon class="st2" points="1288.5,1452.8 1306,1462.9 1306,1483.1 1288.5,1493.2 1270.9,1483.1 1270.9,1462.9 	"/>
	<polygon class="st4" points="1404,1246.3 1443.5,1269.1 1443.5,1314.6 1404,1337.4 1364.5,1314.6 1364.5,1269.1 	"/>
	<polygon class="st4" points="1668.4,1499.5 1680.3,1506.4 1680.3,1520.1 1668.4,1527 1656.5,1520.1 1656.5,1506.4 	"/>
	<polygon class="st4" points="1517.4,1482.2 1532.5,1490.8 1532.5,1508.2 1517.4,1516.9 1502.4,1508.2 1502.4,1490.8 	"/>
	<polygon class="st5" points="1482.9,1246.3 1522.4,1269.1 1522.4,1314.6 1482.9,1337.4 1443.5,1314.6 1443.5,1269.1 	"/>
	<polygon class="st5" points="1579.9,1392.2 1602.4,1405.1 1602.4,1431.1 1579.9,1444.1 1557.4,1431.1 1557.4,1405.1 	"/>
	<polygon class="st8" points="1561.9,1246.3 1601.3,1269.1 1601.3,1314.6 1561.9,1337.4 1522.4,1314.6 1522.4,1269.1 	"/>
	<polygon class="st3" points="1364.5,1314.6 1404,1337.4 1404,1383 1364.5,1405.8 1325,1383 1325,1337.4 	"/>
	<polygon class="st2" points="1443.5,1314.6 1482.9,1337.4 1482.9,1383 1443.5,1405.8 1404,1383 1404,1337.4 	"/>
</g>
<g>
	<polygon class="st0" points="1443.6,905.4 1483.1,928.2 1483.1,973.8 1443.6,996.6 1404.2,973.8 1404.2,928.2 	"/>
	<polygon class="st0" points="1286.3,770.8 1299.2,778.3 1299.2,793.2 1286.3,800.7 1273.3,793.2 1273.3,778.3 	"/>
	<polygon class="st1" points="1522.6,905.4 1562,928.2 1562,973.8 1522.6,996.6 1483.1,973.8 1483.1,928.2 	"/>
	<polygon class="st1" points="1523.5,744.9 1537.2,752.8 1537.2,768.7 1523.5,776.6 1509.7,768.7 1509.7,752.8 	"/>
	<polygon class="st2" points="1601.5,905.4 1641,928.2 1641,973.8 1601.5,996.6 1562,973.8 1562,928.2 	"/>
	<polygon class="st1" points="1680.5,905.4 1719.9,928.2 1719.9,973.8 1680.5,996.6 1641,973.8 1641,928.2 	"/>
	<polygon class="st3" points="1838.4,905.4 1877.8,928.2 1877.8,973.8 1838.4,996.6 1798.9,973.8 1798.9,928.2 	"/>
	<polygon class="st0" points="1917.3,905.4 1956.8,928.2 1956.8,973.8 1917.3,996.6 1877.8,973.8 1877.8,928.2 	"/>
	<polygon class="st0" points="1891.7,770.5 1910.2,781.2 1910.2,802.5 1891.7,813.2 1873.2,802.5 1873.2,781.2 	"/>
	<polygon class="st4" points="1996.2,905.4 2035.7,928.2 2035.7,973.8 1996.2,996.6 1956.8,973.8 1956.8,928.2 	"/>
	<polygon class="st5" points="2075.2,905.4 2114.7,928.2 2114.7,973.8 2075.2,996.6 2035.7,973.8 2035.7,928.2 	"/>
	<polygon class="st5" points="2121.8,833.6 2148.3,848.9 2148.3,879.4 2121.8,894.6 2095.4,879.4 2095.4,848.9 	"/>
	<polygon class="st3" points="2154.1,905.4 2193.6,928.2 2193.6,973.8 2154.1,996.6 2114.7,973.8 2114.7,928.2 	"/>
	<polygon class="st1" points="1404.2,973.8 1443.6,996.6 1443.6,1042.2 1404.2,1065 1364.7,1042.2 1364.7,996.6 	"/>
	<polygon class="st1" points="1103.2,860.6 1113.1,866.3 1113.1,877.8 1103.2,883.6 1093.2,877.8 1093.2,866.3 	"/>
	<polygon class="st4" points="1483.1,973.8 1522.6,996.6 1522.6,1042.2 1483.1,1065 1443.6,1042.2 1443.6,996.6 	"/>
	<polygon class="st4" points="1184.2,739.7 1189.9,742.9 1189.9,749.4 1184.2,752.6 1178.6,749.4 1178.6,742.9 	"/>
	<polygon class="st4" points="1483.1,837.1 1522.6,859.9 1522.6,905.4 1483.1,928.2 1443.6,905.4 1443.6,859.9 	"/>
	<polygon class="st0" points="1562,973.8 1601.5,996.6 1601.5,1042.2 1562,1065 1522.6,1042.2 1522.6,996.6 	"/>
	<polygon class="st0" points="1642.6,823.5 1671.1,840 1671.1,873 1642.6,889.6 1614,873 1614,840 	"/>
	<polygon class="st6" points="1641,973.8 1680.5,996.6 1680.5,1042.2 1641,1065 1601.5,1042.2 1601.5,996.6 	"/>
	<polygon class="st6" points="1706.9,733.9 1724.4,744 1724.4,764.2 1706.9,774.3 1689.4,764.2 1689.4,744 	"/>
	<polygon class="st7" points="1719.9,973.8 1759.4,996.6 1759.4,1042.2 1719.9,1065 1680.5,1042.2 1680.5,996.6 	"/>
	<polygon class="st4" points="1798.9,973.8 1838.4,996.6 1838.4,1042.2 1798.9,1065 1759.4,1042.2 1759.4,996.6 	"/>
	<polygon class="st7" points="1877.8,973.8 1917.3,996.6 1917.3,1042.2 1877.8,1065 1838.4,1042.2 1838.4,996.6 	"/>
	<polygon class="st2" points="1956.8,973.8 1996.2,996.6 1996.2,1042.2 1956.8,1065 1917.3,1042.2 1917.3,996.6 	"/>
	<polygon class="st2" points="1960.4,837.3 1985.8,851.9 1985.8,881.3 1960.4,896 1935,881.3 1935,851.9 	"/>
	<polygon class="st3" points="2035.7,973.8 2075.2,996.6 2075.2,1042.2 2035.7,1065 1996.2,1042.2 1996.2,996.6 	"/>
	<polygon class="st3" points="2148.5,732 2158.1,737.6 2158.1,748.6 2148.5,754.2 2139,748.6 2139,737.6 	"/>
	<polygon class="st3" points="2054,774.1 2071.5,784.2 2071.5,804.4 2054,814.5 2036.5,804.4 2036.5,784.2 	"/>
	<polygon class="st8" points="2114.7,973.8 2154.1,996.6 2154.1,1042.2 2114.7,1065 2075.2,1042.2 2075.2,996.6 	"/>
	<polygon class="st6" points="2193.6,973.8 2233.1,996.6 2233.1,1042.2 2193.6,1065 2154.1,1042.2 2154.1,996.6 	"/>
	<polygon class="st6" points="2453.4,919 2463.3,924.7 2463.3,936 2453.4,941.7 2443.6,936 2443.6,924.7 	"/>
	<polygon class="st6" points="2254.9,896.2 2282.3,912.1 2282.3,943.7 2254.9,959.6 2227.5,943.7 2227.5,912.1 	"/>
	<polygon class="st4" points="2272.5,973.8 2312,996.6 2312,1042.2 2272.5,1065 2233.1,1042.2 2233.1,996.6 	"/>
	<polygon class="st6" points="1364.7,1042.2 1404.2,1065 1404.2,1110.5 1364.7,1133.3 1325.2,1110.5 1325.2,1065 	"/>
	<polygon class="st6" points="1201.2,930 1215.3,938.1 1215.3,954.4 1201.2,962.5 1187.1,954.4 1187.1,938.1 	"/>
	<polygon class="st7" points="1443.6,1042.2 1483.1,1065 1483.1,1110.5 1443.6,1133.3 1404.2,1110.5 1404.2,1065 	"/>
	<polygon class="st1" points="1522.6,1042.2 1562,1065 1562,1110.5 1522.6,1133.3 1483.1,1110.5 1483.1,1065 	"/>
	<polygon class="st3" points="1601.5,1042.2 1641,1065 1641,1110.5 1601.5,1133.3 1562,1110.5 1562,1065 	"/>
	<polygon class="st3" points="1341.7,912.3 1367.7,927.3 1367.7,957.3 1341.7,972.3 1315.7,957.3 1315.7,927.3 	"/>
	<polygon class="st4" points="1680.5,1042.2 1719.9,1065 1719.9,1110.5 1680.5,1133.3 1641,1110.5 1641,1065 	"/>
	<polygon class="st2" points="1759.4,1042.2 1798.9,1065 1798.9,1110.5 1759.4,1133.3 1719.9,1110.5 1719.9,1065 	"/>
	<polygon class="st2" points="1806.1,738.5 1817.8,745.2 1817.8,758.8 1806.1,765.5 1794.3,758.8 1794.3,745.2 	"/>
	<polygon class="st6" points="1838.4,1042.2 1877.8,1065 1877.8,1110.5 1838.4,1133.3 1798.9,1110.5 1798.9,1065 	"/>
	<polygon class="st6" points="1761.5,1501.1 1772.7,1507.6 1772.7,1520.6 1761.5,1527.1 1750.3,1520.6 1750.3,1507.6 	"/>
	<polygon class="st6" points="1761.5,848.2 1786.7,862.8 1786.7,891.9 1761.5,906.4 1736.3,891.9 1736.3,862.8 	"/>
	<polygon class="st5" points="1917.3,1042.2 1956.8,1065 1956.8,1110.5 1917.3,1133.3 1877.8,1110.5 1877.8,1065 	"/>
	<polygon class="st8" points="1996.2,1042.2 2035.7,1065 2035.7,1110.5 1996.2,1133.3 1956.8,1110.5 1956.8,1065 	"/>
	<polygon class="st2" points="2075.2,1042.2 2114.7,1065 2114.7,1110.5 2075.2,1133.3 2035.7,1110.5 2035.7,1065 	"/>
	<polygon class="st2" points="2365.5,797.9 2375.6,803.8 2375.6,815.5 2365.5,821.3 2355.4,815.5 2355.4,803.8 	"/>
	<polygon class="st2" points="2360.6,890.3 2376.3,899.4 2376.3,917.5 2360.6,926.6 2344.9,917.5 2344.9,899.4 	"/>
	<polygon class="st2" points="2228,801.8 2246.6,812.6 2246.6,834.1 2228,844.9 2209.3,834.1 2209.3,812.6 	"/>
	<polygon class="st5" points="2154.1,1042.2 2193.6,1065 2193.6,1110.5 2154.1,1133.3 2114.7,1110.5 2114.7,1065 	"/>
	<polygon class="st5" points="2381,992.8 2405.4,1006.9 2405.4,1035.1 2381,1049.2 2356.6,1035.1 2356.6,1006.9 	"/>
	<polygon class="st3" points="2233.1,1042.2 2272.5,1065 2272.5,1110.5 2233.1,1133.3 2193.6,1110.5 2193.6,1065 	"/>
	<polygon class="st0" points="1325.2,1110.5 1364.7,1133.3 1364.7,1178.9 1325.2,1201.7 1285.7,1178.9 1285.7,1133.3 	"/>
	<polygon class="st0" points="1060.8,1091.6 1067.6,1095.5 1067.6,1103.3 1060.8,1107.2 1054.1,1103.3 1054.1,1095.5 	"/>
	<polygon class="st3" points="1404.2,1110.5 1443.6,1133.3 1443.6,1178.9 1404.2,1201.7 1364.7,1178.9 1364.7,1133.3 	"/>
	<polygon class="st3" points="1073,1343 1083.9,1349.3 1083.9,1361.8 1073,1368.1 1062.1,1361.8 1062.1,1349.3 	"/>
	<polygon class="st3" points="1153.5,1138.6 1167.1,1146.4 1167.1,1162.2 1153.5,1170 1139.9,1162.2 1139.9,1146.4 	"/>
	<polygon class="st3" points="1259.6,1212.9 1283.3,1226.6 1283.3,1254 1259.6,1267.6 1235.9,1254 1235.9,1226.6 	"/>
	<polygon class="st6" points="1483.1,1110.5 1522.6,1133.3 1522.6,1178.9 1483.1,1201.7 1443.6,1178.9 1443.6,1133.3 	"/>
	<polygon class="st6" points="1382.5,1299.3 1406.7,1313.2 1406.7,1341.2 1382.5,1355.1 1358.3,1341.2 1358.3,1313.2 	"/>
	<polygon class="st6" points="1263.5,1043.2 1286,1056.2 1286,1082.2 1263.5,1095.2 1241,1082.2 1241,1056.2 	"/>
	<polygon class="st7" points="1562,1110.5 1601.5,1133.3 1601.5,1178.9 1562,1201.7 1522.6,1178.9 1522.6,1133.3 	"/>
	<polygon class="st2" points="1641,1110.5 1680.5,1133.3 1680.5,1178.9 1641,1201.7 1601.5,1178.9 1601.5,1133.3 	"/>
	<polygon class="st5" points="1719.9,1110.5 1759.4,1133.3 1759.4,1178.9 1719.9,1201.7 1680.5,1178.9 1680.5,1133.3 	"/>
	<polygon class="st3" points="1798.9,1110.5 1838.4,1133.3 1838.4,1178.9 1798.9,1201.7 1759.4,1178.9 1759.4,1133.3 	"/>
	<polygon class="st3" points="1798,1318.5 1822.1,1332.5 1822.1,1360.4 1798,1374.3 1773.8,1360.4 1773.8,1332.5 	"/>
	<polygon class="st8" points="1877.8,1110.5 1917.3,1133.3 1917.3,1178.9 1877.8,1201.7 1838.4,1178.9 1838.4,1133.3 	"/>
	<polygon class="st4" points="1956.8,1110.5 1996.2,1133.3 1996.2,1178.9 1956.8,1201.7 1917.3,1178.9 1917.3,1133.3 	"/>
	<polygon class="st6" points="2035.7,1110.5 2075.2,1133.3 2075.2,1178.9 2035.7,1201.7 1996.2,1178.9 1996.2,1133.3 	"/>
	<polygon class="st6" points="2333,1227.9 2350.9,1238.2 2350.9,1258.8 2333,1269.1 2315.2,1258.8 2315.2,1238.2 	"/>
	<polygon class="st6" points="1962.5,1433.5 1987.7,1448 1987.7,1477.2 1962.5,1491.7 1937.3,1477.2 1937.3,1448 	"/>
	<polygon class="st8" points="2114.7,1110.5 2154.1,1133.3 2154.1,1178.9 2114.7,1201.7 2075.2,1178.9 2075.2,1133.3 	"/>
	<polygon class="st8" points="2412,1095.2 2426.7,1103.7 2426.7,1120.7 2412,1129.2 2397.3,1120.7 2397.3,1103.7 	"/>
	<polygon class="st8" points="2282.1,1127.7 2310.7,1144.2 2310.7,1177.2 2282.1,1193.7 2253.5,1177.2 2253.5,1144.2 	"/>
	<polygon class="st0" points="2193.6,1110.5 2233.1,1133.3 2233.1,1178.9 2193.6,1201.7 2154.1,1178.9 2154.1,1133.3 	"/>
	<polygon class="st0" points="2463.5,1238.3 2454.9,1233.4 2454.9,1223.4 2463.5,1218.5 2472.1,1223.4 2472.1,1233.4 	"/>
	<polygon class="st0" points="1364.7,1178.9 1404.2,1201.7 1404.2,1247.3 1364.7,1270.1 1325.2,1247.3 1325.2,1201.7 	"/>
	<polygon class="st0" points="1199.1,1344.1 1215.9,1353.8 1215.9,1373.3 1199.1,1383 1182.2,1373.3 1182.2,1353.8 	"/>
	<polygon class="st2" points="1443.6,1178.9 1483.1,1201.7 1483.1,1247.3 1443.6,1270.1 1404.2,1247.3 1404.2,1201.7 	"/>
	<polygon class="st2" points="1351.8,1400.2 1363.9,1407.2 1363.9,1421.2 1351.8,1428.1 1339.7,1421.2 1339.7,1407.2 	"/>
	<polygon class="st4" points="1522.6,1178.9 1562,1201.7 1562,1247.3 1522.6,1270.1 1483.1,1247.3 1483.1,1201.7 	"/>
	<polygon class="st4" points="1368.9,1525 1381.2,1532.1 1381.2,1546.3 1368.9,1553.4 1356.6,1546.3 1356.6,1532.1 	"/>
	<polygon class="st0" points="1601.5,1178.9 1641,1201.7 1641,1247.3 1601.5,1270.1 1562,1247.3 1562,1201.7 	"/>
	<polygon class="st0" points="1506.4,1425.5 1521.6,1434.3 1521.6,1452 1506.4,1460.8 1491.1,1452 1491.1,1434.3 	"/>
	<polygon class="st6" points="1680.5,1178.9 1719.9,1201.7 1719.9,1247.3 1680.5,1270.1 1641,1247.3 1641,1201.7 	"/>
	<polygon class="st6" points="1490.2,1550.6 1500.1,1556.3 1500.1,1567.8 1490.2,1573.6 1480.2,1567.8 1480.2,1556.3 	"/>
	<polygon class="st6" points="1618.3,1444.3 1635.5,1454.2 1635.5,1474.2 1618.3,1484.1 1601,1474.2 1601,1454.2 	"/>
	<polygon class="st6" points="1677.5,1329.9 1704.6,1345.6 1704.6,1376.9 1677.5,1392.6 1650.3,1376.9 1650.3,1345.6 	"/>
	<polygon class="st4" points="1759.4,1178.9 1798.9,1201.7 1798.9,1247.3 1759.4,1270.1 1719.9,1247.3 1719.9,1201.7 	"/>
	<polygon class="st5" points="1838.4,1178.9 1877.8,1201.7 1877.8,1247.3 1838.4,1270.1 1798.9,1247.3 1798.9,1201.7 	"/>
	<polygon class="st3" points="1917.3,1178.9 1956.8,1201.7 1956.8,1247.3 1917.3,1270.1 1877.8,1247.3 1877.8,1201.7 	"/>
	<polygon class="st3" points="1958.8,1549.8 1972.8,1557.9 1972.8,1574.1 1958.8,1582.2 1944.7,1574.1 1944.7,1557.9 	"/>
	<polygon class="st8" points="1996.2,1178.9 2035.7,1201.7 2035.7,1247.3 1996.2,1270.1 1956.8,1247.3 1956.8,1201.7 	"/>
	<polygon class="st8" points="2239.6,1381.6 2257.2,1391.8 2257.2,1412.2 2239.6,1422.3 2221.9,1412.2 2221.9,1391.8 	"/>
	<polygon class="st3" points="2075.2,1178.9 2114.7,1201.7 2114.7,1247.3 2075.2,1270.1 2035.7,1247.3 2035.7,1201.7 	"/>
	<polygon class="st3" points="2347.8,1432.8 2358.3,1438.9 2358.3,1451 2347.8,1457.1 2337.3,1451 2337.3,1438.9 	"/>
	<polygon class="st4" points="2154.1,1178.9 2193.6,1201.7 2193.6,1247.3 2154.1,1270.1 2114.7,1247.3 2114.7,1201.7 	"/>
	<polygon class="st4" points="2395.6,1331.3 2407,1337.8 2407,1350.9 2395.6,1357.4 2384.3,1350.9 2384.3,1337.8 	"/>
	<polygon class="st4" points="2203.5,1261.8 2230.7,1277.4 2230.7,1308.8 2203.5,1324.5 2176.4,1308.8 2176.4,1277.4 	"/>
	<polygon class="st5" points="1483.1,1247.3 1522.6,1270.1 1522.6,1315.6 1483.1,1338.4 1443.6,1315.6 1443.6,1270.1 	"/>
	<polygon class="st8" points="1641,1247.3 1680.5,1270.1 1680.5,1315.6 1641,1338.4 1601.5,1315.6 1601.5,1270.1 	"/>
	<polygon class="st5" points="1719.9,1247.3 1759.4,1270.1 1759.4,1315.6 1719.9,1338.4 1680.5,1315.6 1680.5,1270.1 	"/>
	<polygon class="st2" points="1877.8,1247.3 1917.3,1270.1 1917.3,1315.6 1877.8,1338.4 1838.4,1315.6 1838.4,1270.1 	"/>
	<polygon class="st2" points="1841.2,1453.8 1858.7,1463.9 1858.7,1484.1 1841.2,1494.2 1823.7,1484.1 1823.7,1463.9 	"/>
	<polygon class="st4" points="1956.8,1247.3 1996.2,1270.1 1996.2,1315.6 1956.8,1338.4 1917.3,1315.6 1917.3,1270.1 	"/>
	<polygon class="st4" points="2221.2,1500.5 2233,1507.4 2233,1521.1 2221.2,1528 2209.3,1521.1 2209.3,1507.4 	"/>
	<polygon class="st4" points="2070.2,1483.2 2085.3,1491.8 2085.3,1509.2 2070.2,1517.9 2055.2,1509.2 2055.2,1491.8 	"/>
	<polygon class="st5" points="2035.7,1247.3 2075.2,1270.1 2075.2,1315.6 2035.7,1338.4 1996.2,1315.6 1996.2,1270.1 	"/>
	<polygon class="st5" points="2132.7,1393.2 2155.2,1406.1 2155.2,1432.1 2132.7,1445.1 2110.2,1432.1 2110.2,1406.1 	"/>
	<polygon class="st8" points="2114.7,1247.3 2154.1,1270.1 2154.1,1315.6 2114.7,1338.4 2075.2,1315.6 2075.2,1270.1 	"/>
	<polygon class="st3" points="1917.3,1315.6 1956.8,1338.4 1956.8,1384 1917.3,1406.8 1877.8,1384 1877.8,1338.4 	"/>
	<polygon class="st2" points="1996.2,1315.6 2035.7,1338.4 2035.7,1384 1996.2,1406.8 1956.8,1384 1956.8,1338.4 	"/>
</g>
</svg>
